<svg width="594" height="272" viewBox="0 0 594 272" fill="none" xmlns="http://www.w3.org/2000/svg">
<g clip-path="url(#clip0_6207_2280)">
<path d="M1.20728 90.5327C0.871016 89.0112 0.00554633 86.6463 3.37831e-05 85.1138C-0.00547876 83.9286 0.661539 82.567 3.5446 82.556C6.94033 82.5395 7.81131 87.1094 9.01856 89.6451C15.3525 103.019 27.6289 114.826 43.5767 114.744C55.4452 114.683 65.0701 107.34 65.0095 94.9592C64.8661 67.3193 2.01211 81.029 1.77507 34.7236C1.69239 17.2599 15.8541 1.41684 35.8702 1.31211C50.28 1.24044 58.9622 7.8114 64.5574 7.78383C66.4317 7.77281 70.1472 5.38036 71.6741 5.37485C73.8792 5.36383 74.3973 6.36711 74.4084 8.57764C74.1162 18.2466 76.9055 33.6652 76.9166 35.5285C76.9331 37.739 75.9188 39.2715 73.5484 39.2825C70.4945 39.2991 69.7999 36.5869 68.4217 32.3532C64.4527 19.9941 49.9823 8.87532 37.094 8.93596C26.7414 8.99108 17.7835 14.9777 17.8386 24.6412C17.982 53.4718 80.836 37.8878 81.0675 84.7004C81.1557 101.15 68.3721 122.246 43.0971 122.379C32.2429 122.434 22.7283 118.922 12.3757 116.938C10.6723 116.607 7.96015 116.453 7.27108 114.082L1.20728 90.5327Z" fill="#2D2A24"/>
<path d="M142.819 19.0849C142.792 12.9825 138.712 11.6374 130.57 11.687C114.286 11.7697 106.993 13.1644 102.848 29.9777C102.682 30.9975 101.668 31.5046 99.7993 31.5157C97.4234 31.5267 96.7454 30.5124 96.7454 29.4981C96.7344 27.9711 97.0541 25.6007 97.2195 23.7264L98.8291 6.42255C99.1489 3.36309 99.9923 2.51416 103.89 2.49211C121.194 2.4039 138.327 3.6773 155.63 3.58359C172.929 3.49539 190.398 2.0511 207.36 1.9629C211.594 1.93534 212.106 2.44801 212.647 8.20861L214.433 25.5015C214.604 26.6812 214.786 28.0428 214.791 29.2335C214.791 30.2478 213.099 30.9313 211.737 30.9423C209.708 30.9534 208.854 30.4517 208.678 29.4264C204.356 12.6683 197.052 11.3397 180.773 11.4279C171.44 11.472 168.574 13.3518 168.601 18.9471L169.004 97.6497C169.07 111.051 180.608 110.825 186.214 113.338C188.083 114.176 190.966 113.653 190.988 117.385C191.004 120.102 188.965 120.108 186.925 120.119C176.925 120.168 166.567 118.873 156.22 118.917C145.879 118.978 135.537 120.378 125.526 120.433C123.498 120.444 121.458 120.455 121.447 117.743C121.425 114.005 124.308 114.507 126.171 113.642C131.756 111.073 143.293 111.183 143.222 97.782L142.819 19.0849Z" fill="#2D2A24"/>
<path d="M291.994 0.000122168C326.762 -0.181792 354.181 22.2377 354.374 58.1961C354.567 96.3594 320.428 120.956 285.153 121.138C250.374 121.32 224.482 98.388 224.305 63.9512C224.124 27.4802 256.708 0.182036 291.994 0.000122168ZM293.08 113.465C313.096 113.36 327.065 91.9218 326.938 67.6666C326.828 44.5911 312.721 7.52475 285.588 7.66807C265.572 7.7673 251.604 29.2111 251.736 53.4663C251.846 76.5308 265.947 113.603 293.08 113.465Z" fill="#2D2A24"/>
<path d="M378.111 21.9454C378.056 11.9402 372.279 8.91377 365.151 7.93805C362.941 7.6073 361.579 6.5985 361.562 3.88082C361.562 2.18847 362.23 1.16313 366.303 1.14108C370.377 1.12455 374.964 2.45307 386.997 2.39243C396.159 2.34833 408.695 0.926095 416.164 0.881995C438.898 0.771744 462.492 4.89513 462.63 32.8768C462.696 44.409 456.952 50.3791 450.028 54.486C446.643 56.3658 441.726 57.4076 441.731 59.1055C441.748 61.6468 460.915 95.4718 469.278 104.76C470.987 106.613 472.348 107.627 473.87 107.621C475.733 107.61 477.602 107.087 479.123 107.081C481.163 107.081 481.846 108.255 481.857 110.124C481.896 117.417 461.885 118.536 456.285 118.564C451.367 118.586 445.419 115.223 441.649 108.459L421.616 72.2639C418.711 67.027 415.971 62.7934 409.698 62.8265C405.288 62.8485 404.103 63.7085 404.119 65.9135L404.263 94.7441C404.334 108.652 410.117 111.679 417.245 112.147C419.45 112.313 420.811 113.487 420.828 116.204C420.839 118.404 418.81 118.928 411.005 118.972C404.219 118.999 397.433 117.682 390.636 117.715C383.855 117.748 377.08 119.143 370.294 119.176C367.924 119.192 365.383 119.203 365.366 116.48C365.35 113.773 368.227 112.908 369.92 112.395C376.529 110.323 378.53 103.867 378.503 98.2776L378.111 21.9454ZM404.031 49.6294C404.042 51.6691 404.064 55.5664 414.918 55.5058C430.183 55.4397 436.423 48.2789 436.335 31.3168C436.274 19.101 428.915 7.26552 414.334 7.3427C405.343 7.39231 403.833 10.1045 403.86 16.2179L404.031 49.6294Z" fill="#2D2A24"/>
<path d="M564.7 24.0402C566.723 20.6445 567.219 17.9213 567.202 15.7163C567.186 10.97 561.398 8.79252 553.928 6.96786C551.894 6.47173 550.532 5.62831 550.516 2.91063C550.499 0.20397 552.368 0.192945 554.408 0.18192C560.339 0.154357 566.287 1.47737 572.219 1.44981C578.15 1.41673 584.082 0.0275684 590.024 5.64488e-06C591.893 5.64488e-06 593.922 -0.0220446 593.938 2.69013C593.949 5.40781 592.428 5.58421 589.55 6.78595C584.302 9.01853 581.937 12.0835 575.548 22.7999L553.856 59.0394C551.674 62.6115 549.816 65.1638 549.832 68.2178L549.97 94.8433C550.014 103.327 552.589 109.424 561.409 110.56C565.323 111.05 568.878 111.205 568.9 114.6C568.917 118.156 564.17 118.183 559.413 118.206C551.789 118.244 544.143 116.927 536.001 116.965C530.241 116.998 522.611 118.393 514.982 118.437C510.23 118.454 505.484 118.481 505.462 114.92C505.445 111.53 509.006 111.342 512.904 110.808C521.718 109.578 524.232 103.459 524.188 94.9812L524.078 73.7799C524.067 72.082 523.56 70.7315 522.7 69.3809L496.675 21.6808C490.854 11.1905 486.763 7.98768 482.188 7.34272C478.279 6.6757 475.049 6.01419 475.038 3.30202C475.027 0.584335 477.905 0.57331 480.97 0.556773C488.593 0.518185 496.228 1.83568 503.863 1.7971C511.498 1.75851 519.127 0.363834 526.762 0.325246C529.811 0.303196 532.688 0.286658 532.705 2.99883C532.721 5.71652 527.975 5.74408 525.439 7.11119C523.234 8.30741 521.713 9.51466 521.724 10.8652C521.74 13.7483 523.113 16.7967 524.993 20.1704L540.577 48.7585C543.14 53.4937 544.502 55.0152 545.527 55.0152C546.205 55.0152 548.559 51.7738 550.24 48.8797L564.7 24.0402Z" fill="#2D2A24"/>
<path d="M99.5294 233.247C100.891 234.432 102.936 236.284 104.799 236.279C109.728 236.245 110.003 224.89 109.987 221.83C109.943 212.674 106.359 208.793 97.7157 208.832C92.7875 208.854 91.9331 207.679 91.9221 204.962C91.9055 201.902 92.9198 201.395 96.1392 201.379C100.891 201.351 105.648 202.007 110.389 201.985C115.317 201.952 120.229 201.257 124.981 201.23C128.029 201.213 129.562 201.886 129.573 204.763C129.589 208.324 123.316 208.187 122.147 212.773C120.653 218.721 120.174 223.815 118.674 229.25C117.175 234.685 111.271 240.821 111.271 241.499C111.288 243.875 129.17 257.866 134.258 257.838C137.141 257.822 139.005 257.132 140.868 257.121C143.922 257.105 145.283 258.114 145.289 259.47C145.322 265.919 129.242 271.597 121.442 271.642C106.007 271.713 98.8238 260.22 92.5395 259.062C80.2079 268.797 66.8289 271.923 51.2174 272C26.7968 272.121 3.14252 257.149 3.01022 231.367C2.92753 215.259 14.2227 201.461 28.4341 194.598C26.5433 189.185 25.3305 184.775 25.2864 176.809C25.2092 161.032 39.9112 150.955 54.8392 150.873C69.26 150.807 75.7262 156.363 80.3071 156.347C84.0391 156.325 85.8968 154.616 87.5947 154.605C89.2926 154.605 89.469 155.784 89.6454 157.824L91.6354 181.903C91.8118 183.253 91.9882 184.439 91.9937 185.624C92.0047 187.487 91.6685 188.512 89.4635 188.518C86.7513 188.534 85.8968 187.355 85.7094 184.637C84.7943 171.92 70.6546 158.932 58.1026 158.998C50.9804 159.037 47.1106 165.332 47.1436 171.776C47.2429 190.607 86.9222 222.282 99.5294 233.247ZM30.6777 201.373C25.9204 201.401 22.894 205.144 22.9436 215.32C22.9987 226.009 46.0687 259.475 70.9964 259.343C77.9533 259.31 85.2298 256.901 85.2243 254.349C85.2133 253.163 84.3643 251.813 82.6555 250.462C61.8732 233.103 49.7566 218.572 41.7414 209.967C36.7966 204.57 33.5497 201.357 30.6777 201.373Z" fill="#2D2A24"/>
<path d="M302.457 178.264C302.81 181.484 303.681 185.05 303.686 187.079C303.697 188.942 302.865 191.153 301.172 191.158C299.133 191.169 297.247 187.117 296.564 185.927C285.776 167.157 271.311 157.394 256.559 157.471C235.016 157.581 219.306 169.869 219.493 206.847C219.631 232.971 236.372 257.474 259.277 257.358C273.516 257.287 286.713 249.922 295.654 240.892C297.683 238.842 300.213 235.44 302.914 235.429C304.281 235.418 304.794 236.262 304.8 237.789C304.822 242.882 286.647 270.792 251.036 270.974C222.536 271.118 192.244 250.743 192.057 214.62C191.814 167.294 223.445 150.007 252.612 149.858C271.272 149.764 285.566 158.673 290.147 158.656C294.386 158.629 292.832 153.386 297.578 153.359C299.111 153.359 299.618 154.367 299.794 155.211L302.457 178.264Z" fill="#2D2A24"/>
<path d="M408.562 228.44C408.672 250.49 391.473 270.252 367.394 270.373C344.324 270.495 323.211 255.501 323.084 231.422C322.974 208.181 341.21 192.139 365.801 192.018C385.652 191.919 408.441 204.862 408.562 228.44ZM345.973 228.252C346.077 248.097 356.502 263.643 367.863 263.593C382.284 263.51 385.779 250.098 385.701 235.848C385.591 214.305 376.523 198.749 363.8 198.821C349.385 198.892 345.89 212.304 345.973 228.252Z" fill="#2D2A24"/>
<path d="M424.814 253.461C424.77 245.49 430.844 239.349 438.479 239.311C446.621 239.267 452.255 246.025 452.288 253.324C452.332 261.118 446.759 267.083 438.617 267.127C431.837 267.16 424.852 261.769 424.814 253.461Z" fill="#2D2A24"/>
</g>
<defs>
<clipPath id="clip0_6207_2280">
<rect width="593.938" height="272" fill="white"/>
</clipPath>
</defs>
</svg>
