<svg width="290" height="78" viewBox="0 0 290 78" fill="none" xmlns="http://www.w3.org/2000/svg">
<g clip-path="url(#clip0_4410_27061)">
<path d="M201.885 3.95221L176.411 4.42762C175.494 4.42762 174.896 5.10105 174.896 6.09121C174.896 7.08138 175.573 7.83479 176.451 7.7948L199.692 7.2007C200.37 7.2007 200.569 7.28004 200.569 7.67611C200.569 8.15151 199.573 9.69642 197.978 11.6774C197.66 12.0607 197.311 12.4594 196.954 12.8529C196.952 12.8561 196.949 12.8586 196.947 12.8618C196.933 12.877 196.919 12.8929 196.906 12.9081L196.91 12.9113C196.549 13.3384 196.386 13.9211 196.53 14.5044C196.769 15.4755 197.755 16.0703 198.732 15.8322C199.124 15.737 199.451 15.5193 199.691 15.2337L199.693 15.2356C202.428 12.149 204.914 7.86716 204.914 6.3305C204.914 4.90429 203.678 3.91413 201.885 3.95348V3.95221ZM65.1752 3.51616H45.8017C43.3298 3.51616 42.1342 4.70435 42.1342 7.16072V16.1928C42.1342 17.1436 42.8917 17.817 43.9679 17.817C45.0046 17.817 45.8017 17.1042 45.8017 16.1928V7.75481C45.8017 7.08138 46.1204 6.76402 46.7981 6.76402H63.8601C64.5774 6.76402 64.8967 7.04139 64.8967 7.67547C64.8967 8.11153 64.7773 9.02235 64.4183 11.0033C63.9399 13.5784 63.2226 15.876 62.2652 17.857C60.6512 21.122 58.3454 23.605 54.7763 25.765C53.8604 26.2937 53.4369 27.2464 53.8469 28.1864C54.2564 29.1264 55.3256 29.5454 56.2357 29.122C56.253 29.1137 56.267 29.1017 56.2843 29.0928L56.2875 29.0998C58.0542 28.0614 59.3182 27.1207 60.671 25.8989C64.9357 22.017 66.8895 17.7383 68.1254 9.73577C68.4045 7.91349 68.4837 7.16072 68.4837 6.64596C68.4837 4.665 67.2478 3.51616 65.1752 3.51616ZM107.483 14.3311H82.6383C81.7614 14.3311 81.1233 15.0439 81.1233 15.9947C81.1233 16.9455 81.7614 17.659 82.6383 17.659H107.483C108.415 17.659 109.17 16.9138 109.17 15.9954C109.17 15.0769 108.415 14.3311 107.483 14.3311ZM241.709 3.51616H222.335C219.863 3.51616 218.668 4.70435 218.668 7.16072V16.1928C218.668 17.1436 219.425 17.817 220.501 17.817C221.538 17.817 222.335 17.1042 222.335 16.1928V7.75481C222.335 7.08138 222.654 6.76402 223.331 6.76402H240.393C241.111 6.76402 241.43 7.04139 241.43 7.67547C241.43 8.11153 241.311 9.02235 240.952 11.0033C240.473 13.5784 239.756 15.876 238.799 17.857C237.185 21.122 234.879 23.605 231.31 25.765C230.394 26.2937 229.97 27.2464 230.38 28.1864C230.79 29.1264 231.859 29.5454 232.769 29.122C232.786 29.1137 232.8 29.1017 232.818 29.0928L232.821 29.0998C234.588 28.0614 235.852 27.1207 237.204 25.8989C241.469 22.017 243.423 17.7383 244.659 9.73577C244.938 7.91349 245.017 7.16072 245.017 6.64596C245.017 4.665 243.781 3.51616 241.709 3.51616ZM282.514 14.3311H257.669C256.792 14.3311 256.154 15.0439 256.154 15.9947C256.154 16.9455 256.792 17.659 257.669 17.659H282.514C283.446 17.659 284.201 16.9138 284.201 15.9954C284.201 15.0769 283.446 14.3311 282.514 14.3311ZM188.171 10.2505C186.815 10.2505 186.456 10.7259 186.456 12.6669C186.456 17.1042 186.257 19.0845 185.739 20.7881C184.742 23.8386 182.151 26.8097 178.882 28.4733C176.57 29.7009 176.809 29.5428 176.53 29.8995C176.33 30.1369 176.211 30.4936 176.211 30.8503C176.211 31.8411 177.009 32.6726 177.965 32.6726C178.523 32.6726 179.36 32.2766 181.154 31.2071C184.144 29.3848 186.576 26.9284 188.011 24.354C189.606 21.4622 190.084 18.7678 190.084 12.2321C190.084 10.8459 189.527 10.2505 188.171 10.2505ZM8.29181 13.7764C8.29181 13.7764 9.57818 12.2182 10.1256 11.4C10.8441 10.2099 12.2755 7.82971 12.6434 6.88461C13.178 5.50981 12.5399 4.82178 11.9402 4.5736C11.3404 4.32543 10.2092 4.39461 9.65738 5.71165C9.63439 5.76687 9.62034 5.81003 9.59223 5.87033C7.7093 9.87668 5.23939 13.0223 1.91359 15.7186C0.0402391 17.2635 0 17.2635 0 17.8976C0 18.7297 0.797117 19.5219 1.59487 19.5219C2.31215 19.5219 2.67111 19.2845 4.38542 17.7789C6.09974 16.2734 7.05653 15.2832 8.29245 13.7777L8.29181 13.7764ZM24.0783 4.665H16.1538C14.2082 4.665 14.1795 7.59613 15.9788 7.59613H22.6431C23.3208 7.59613 23.5597 7.71546 23.5597 8.07154C23.5597 8.50696 22.9216 10.6859 22.3238 12.1915C21.4072 14.6479 20.2907 16.6682 18.6166 18.9659C18.6166 18.9659 18.4812 19.1512 18.2679 19.4305L12.8867 14.6561C12.2327 14.0753 11.2784 14.1852 10.6416 14.8941C10.0042 15.6037 10.0023 16.5577 10.6563 17.1379L16.088 21.9579C14.6745 23.3778 13.6391 24.2848 12.1982 25.4235C10.3644 26.8097 7.89261 28.3553 6.21854 29.1074C3.54743 30.3356 3.82719 30.2169 3.46759 30.5736C3.26831 30.7716 3.14887 31.0884 3.14887 31.4844C3.14887 32.5146 3.90639 33.3067 4.86318 33.3067C5.30134 33.3067 5.6999 33.148 7.25453 32.3559C9.32781 31.2864 10.8428 30.3356 12.8356 28.9094C18.8951 24.5914 22.6029 20.0753 24.9942 14.1731C25.9906 11.7167 27.0669 8.03282 27.0669 7.04202C27.0669 5.57646 25.9114 4.665 24.0777 4.665H24.0783ZM153.434 4.98173C150.762 3.47617 148.171 2.80273 145.102 2.80273C135.494 2.80273 127.84 9.81448 127.84 18.6485C127.84 24.1153 131.348 29.1068 135.215 29.1068C138.325 29.1068 140.956 25.9376 143.028 19.6387C143.278 18.8783 143.517 18.0436 143.746 17.1633L143.732 17.1607C143.777 17.0122 143.809 16.8573 143.809 16.6936C143.809 15.8037 143.089 15.082 142.201 15.082C141.369 15.082 140.693 15.718 140.61 16.5298H140.609C140.093 18.4924 139.517 20.1934 138.882 21.5803C137.527 24.6307 136.531 25.7796 135.215 25.7796C133.062 25.7796 131.149 22.373 131.149 18.4905C131.149 12.3362 135.855 7.03504 142.188 5.9922C142.238 5.963 142.284 5.94079 142.322 5.93253C142.859 5.81003 144.472 5.66151 145.74 5.7345C152.676 6.36859 156.742 10.2905 156.742 16.4308C156.742 22.4917 153.114 26.4137 146.417 27.5231L144.982 27.7605C144.504 27.8399 144.105 28.0379 143.906 28.2359C143.627 28.4733 143.507 28.83 143.507 29.3054C143.507 30.4143 144.185 31.0877 145.34 31.0877C145.819 31.0877 147.014 30.8897 148.25 30.573C150.603 30.0182 152.556 29.2661 154.23 28.1959C157.977 25.8589 160.05 21.7389 160.05 16.6682C160.05 11.5187 157.738 7.47744 153.433 4.98173H153.434Z" fill="black"/>
<path d="M209.077 63.8123C208.667 62.5689 208.052 61.4689 207.233 60.5105C206.413 59.5527 205.393 58.7885 204.174 58.2172C202.954 57.646 201.534 57.3604 199.915 57.3604C198.296 57.3604 196.875 57.646 195.655 58.2172C194.435 58.7885 193.415 59.5527 192.596 60.5105C191.776 61.4683 191.162 62.5689 190.752 63.8123C190.342 65.0557 190.137 66.3499 190.137 67.6942C190.137 69.0385 190.342 70.3327 190.752 71.5762C191.162 72.8196 191.776 73.9202 192.596 74.878C193.415 75.8358 194.435 76.5955 195.655 77.1572C196.875 77.719 198.294 78.0001 199.915 78.0001C201.535 78.0001 202.954 77.719 204.174 77.1572C205.393 76.5955 206.413 75.8358 207.233 74.878C208.052 73.9202 208.666 72.8196 209.077 71.5762C209.486 70.3327 209.691 69.0385 209.691 67.6942C209.691 66.3499 209.486 65.0557 209.077 63.8123ZM206.575 70.6374C206.308 71.6047 205.889 72.4749 205.318 73.2486C204.746 74.0217 204.012 74.6438 203.117 75.1134C202.221 75.5831 201.153 75.818 199.915 75.818C198.676 75.818 197.608 75.5831 196.713 75.1134C195.817 74.6438 195.084 74.0217 194.512 73.2486C193.94 72.4749 193.521 71.6047 193.254 70.6374C192.987 69.6707 192.854 68.6895 192.854 67.6948C192.854 66.7002 192.987 65.7196 193.254 64.7523C193.521 63.7856 193.94 62.9148 194.512 62.1417C195.084 61.368 195.817 60.7459 196.713 60.2769C197.609 59.8072 198.676 59.5723 199.915 59.5723C201.154 59.5723 202.22 59.8072 203.117 60.2769C204.012 60.7466 204.746 61.368 205.318 62.1417C205.889 62.9148 206.308 63.7856 206.575 64.7523C206.842 65.7196 206.975 66.7002 206.975 67.6948C206.975 68.6895 206.842 69.6707 206.575 70.6374ZM131.783 63.8123C131.373 62.5689 130.759 61.4689 129.939 60.5105C129.12 59.5527 128.1 58.7885 126.88 58.2172C125.661 57.646 124.24 57.3604 122.621 57.3604C121.002 57.3604 119.581 57.646 118.362 58.2172C117.142 58.7885 116.122 59.5527 115.303 60.5105C114.483 61.4683 113.868 62.5689 113.459 63.8123C113.049 65.0557 112.844 66.3499 112.844 67.6942C112.844 69.0385 113.049 70.3327 113.459 71.5762C113.868 72.8196 114.483 73.9202 115.303 74.878C116.122 75.8358 117.142 76.5955 118.362 77.1572C119.581 77.719 121.001 78.0001 122.621 78.0001C124.242 78.0001 125.661 77.719 126.88 77.1572C128.1 76.5955 129.12 75.8358 129.939 74.878C130.759 73.9202 131.372 72.8196 131.783 71.5762C132.192 70.3327 132.397 69.0385 132.397 67.6942C132.397 66.3499 132.192 65.0557 131.783 63.8123ZM129.282 70.6374C129.014 71.6047 128.596 72.4749 128.024 73.2486C127.453 74.0217 126.719 74.6438 125.823 75.1134C124.927 75.5831 123.86 75.818 122.621 75.818C121.383 75.818 120.315 75.5831 119.419 75.1134C118.523 74.6438 117.79 74.0217 117.218 73.2486C116.647 72.4749 116.227 71.6047 115.961 70.6374C115.693 69.6707 115.56 68.6895 115.56 67.6948C115.56 66.7002 115.693 65.7196 115.961 64.7523C116.227 63.7856 116.647 62.9148 117.218 62.1417C117.79 61.368 118.523 60.7459 119.419 60.2769C120.316 59.8072 121.382 59.5723 122.621 59.5723C123.86 59.5723 124.926 59.8072 125.823 60.2769C126.719 60.7466 127.453 61.368 128.024 62.1417C128.596 62.9148 129.015 63.7856 129.282 64.7523C129.548 65.7196 129.682 66.7002 129.682 67.6948C129.682 68.6895 129.548 69.6707 129.282 70.6374ZM45.2191 63.8123C44.8091 62.5689 44.1946 61.4689 43.3752 60.5105C42.5557 59.5527 41.5357 58.7885 40.3164 58.2172C39.0971 57.646 37.6766 57.3604 36.0574 57.3604C34.4383 57.3604 33.0171 57.646 31.7978 58.2172C30.5779 58.7885 29.5578 59.5527 28.739 60.5105C27.9189 61.4683 27.3044 62.5689 26.895 63.8123C26.485 65.0557 26.2799 66.3499 26.2799 67.6942C26.2799 69.0385 26.485 70.3327 26.895 71.5762C27.3044 72.8196 27.9189 73.9202 28.739 74.878C29.5578 75.8358 30.5779 76.5955 31.7978 77.1572C33.0171 77.719 34.437 78.0001 36.0574 78.0001C37.6778 78.0001 39.0971 77.719 40.3164 77.1572C41.5357 76.5955 42.5557 75.8358 43.3752 74.878C44.1946 73.9202 44.8085 72.8196 45.2191 71.5762C45.6286 70.3327 45.8336 69.0385 45.8336 67.6942C45.8336 66.3499 45.6286 65.0557 45.2191 63.8123ZM42.7179 70.6374C42.4503 71.6047 42.032 72.4749 41.4603 73.2486C40.8887 74.0217 40.1548 74.6438 39.2593 75.1134C38.3632 75.5831 37.2959 75.818 36.0574 75.818C34.8189 75.818 33.751 75.5831 32.8555 75.1134C31.9594 74.6438 31.2262 74.0217 30.6545 73.2486C30.0829 72.4749 29.6632 71.6047 29.3969 70.6374C29.1293 69.6707 28.9964 68.6895 28.9964 67.6948C28.9964 66.7002 29.1293 65.7196 29.3969 64.7523C29.6632 63.7856 30.0829 62.9148 30.6545 62.1417C31.2262 61.368 31.9594 60.7459 32.8555 60.2769C33.7516 59.8072 34.8183 59.5723 36.0574 59.5723C37.2965 59.5723 38.3625 59.8072 39.2593 60.2769C40.1548 60.7466 40.8887 61.368 41.4603 62.1417C42.032 62.9148 42.451 63.7856 42.7179 64.7523C42.9843 65.7196 43.1178 66.7002 43.1178 67.6948C43.1178 68.6895 42.9843 69.6707 42.7179 70.6374ZM95.5646 75.3908L91.0853 69.4644C91.0464 69.413 91.077 69.3407 91.1409 69.3286C92.2919 69.1084 93.2257 68.6596 93.9308 67.9709C94.9885 66.9395 95.5174 65.5025 95.5174 63.6606C95.5174 61.8186 94.9885 60.3867 93.9308 59.3642C92.8731 58.3423 91.3153 57.8307 89.2573 57.8307H81.6624C80.9151 57.8307 80.3096 58.4324 80.3096 59.175V72.2851C80.3096 73.0278 80.9151 73.6295 81.6624 73.6295H81.6719C82.4192 73.6295 83.0247 73.0373 83.0247 72.2851V69.8421C83.0247 69.6479 83.1831 69.4905 83.3786 69.4898L87.3635 69.4873C87.5309 69.4873 87.688 69.5654 87.7889 69.698L93.3509 77.0557C93.812 77.6606 94.6871 77.7805 95.2958 77.3229C95.9044 76.8646 96.0252 75.9957 95.5646 75.3908ZM83.0247 66.9281V60.393C83.0247 60.1988 83.1831 60.0408 83.3792 60.0408H88.342C89.8858 60.0408 91.0151 60.3492 91.7298 60.9662C92.4445 61.5838 92.8016 62.4813 92.8016 63.6599C92.8016 64.8386 92.4445 65.7418 91.7298 66.3676C91.0151 66.9941 89.8858 67.2981 88.342 67.2797H83.3792C83.1838 67.2797 83.0247 67.123 83.0247 66.9281ZM289.052 75.3908L284.573 69.4644C284.534 69.413 284.565 69.3407 284.628 69.3286C285.779 69.1084 286.713 68.6596 287.418 67.9709C288.476 66.9395 289.005 65.5025 289.005 63.6606C289.005 61.8186 288.476 60.3867 287.418 59.3642C286.361 58.3423 284.803 57.8307 282.745 57.8307H275.15C274.403 57.8307 273.797 58.4324 273.797 59.175V72.2851C273.797 73.0278 274.403 73.6295 275.15 73.6295H275.159C275.907 73.6295 276.512 73.0373 276.512 72.2851V69.8421C276.512 69.6479 276.671 69.4905 276.866 69.4898L280.851 69.4873C281.018 69.4873 281.175 69.5654 281.276 69.698L286.838 77.0557C287.299 77.6606 288.175 77.7805 288.783 77.3229C289.392 76.8646 289.513 75.9957 289.052 75.3908ZM276.512 66.9281V60.393C276.512 60.1988 276.671 60.0408 276.867 60.0408H281.83C283.373 60.0408 284.503 60.3492 285.217 60.9662C285.932 61.5838 286.289 62.4813 286.289 63.6599C286.289 64.8386 285.932 65.7418 285.217 66.3676C284.503 66.9941 283.373 67.2981 281.83 67.2797H276.867C276.671 67.2797 276.512 67.123 276.512 66.9281ZM184.879 59.1217C184.79 59.665 184.277 60.0414 183.722 60.0414H178.445C178.249 60.0414 178.09 60.1994 178.09 60.3943V72.2807C178.09 73.0233 177.484 73.625 176.737 73.625H176.728C175.98 73.625 175.375 73.0233 175.375 72.2807V60.3943C175.375 60.1994 175.216 60.0414 175.02 60.0414H169.683C169.007 60.0414 168.473 59.4429 168.586 58.7504C168.675 58.2071 169.188 57.8307 169.743 57.8307H183.782C184.457 57.8307 184.992 58.4292 184.878 59.1217H184.879ZM70.8182 63.1103V70.4299C70.8182 72.9535 70.1227 74.8462 68.7316 76.1074C67.3404 77.3692 65.3585 77.9995 62.7858 77.9995C60.1562 77.9995 58.102 77.3965 56.6253 76.1899C55.1486 74.9833 54.4103 73.0633 54.4103 70.4292V59.1744C54.4103 58.4318 55.0158 57.83 55.7631 57.83H55.7726C56.5199 57.83 57.1255 58.4318 57.1255 59.1744V70.4292C57.1255 72.1975 57.6115 73.5374 58.583 74.4489C59.5551 75.361 60.9558 75.8167 62.7851 75.8167C64.5192 75.8167 65.8388 75.361 66.7445 74.4489C67.6496 73.5374 68.1024 72.1969 68.1024 70.4292V63.1096C68.1024 62.367 68.7079 61.7653 69.4552 61.7653H69.4648C70.2121 61.7653 70.8176 62.367 70.8176 63.1096L70.8182 63.1103ZM241.157 63.1712L237.574 76.2052C237.353 77.0043 236.622 77.5584 235.787 77.5584H235.776C234.945 77.5584 234.215 77.0081 233.991 76.2121L229.71 60.9808H229.652L225.344 76.1226C225.145 76.8215 224.59 77.4003 223.871 77.5286C222.895 77.7031 221.984 77.1014 221.742 76.1861L217.304 59.4498C217.087 58.6317 217.708 57.8313 218.559 57.8313H218.627C219.226 57.8313 219.747 58.2388 219.888 58.8177L223.595 73.9094C223.617 73.9995 223.745 74.0014 223.77 73.9119L227.888 59.2391C228.12 58.4076 228.881 57.8313 229.75 57.8313C230.619 57.8313 231.384 58.4102 231.614 59.2448L235.678 73.9087C235.703 73.9982 235.832 73.9963 235.853 73.9062L238.646 62.5155C238.791 61.9418 239.31 61.54 239.905 61.54C240.762 61.54 241.383 62.3505 241.157 63.1718L241.157 63.1712ZM16.4278 63.1103V76.2102C16.4278 76.9529 15.8222 77.5546 15.075 77.5546H15.0654C14.3181 77.5546 13.7126 76.9529 13.7126 76.2102V68.8723C13.7126 68.678 13.5542 68.52 13.3581 68.52H3.31747C3.12202 68.52 2.96298 68.6774 2.96298 68.8723V76.2102C2.96298 76.9529 2.35748 77.5546 1.61018 77.5546H1.6006C0.853305 77.5546 0.247803 76.9529 0.247803 76.2102V59.1718C0.247803 58.4292 0.853305 57.8275 1.6006 57.8275H1.61018C2.35748 57.8275 2.96298 58.4292 2.96298 59.1718V65.9576C2.96298 66.1518 3.12139 66.3099 3.31747 66.3099H13.3574C13.5529 66.3099 13.7119 66.1525 13.7119 65.9576V63.1103C13.7119 62.3676 14.3174 61.7659 15.0647 61.7659H15.0743C15.8216 61.7659 16.4278 62.3676 16.4278 63.1103ZM154.235 67.3286V67.5019C154.235 68.0643 153.776 68.5206 153.209 68.5206H144.858V76.5365C144.858 77.0988 144.4 77.5552 143.833 77.5552H143.168C142.602 77.5552 142.142 77.0995 142.142 76.5365V58.8462C142.142 58.2839 142.601 57.8275 143.168 57.8275H151.056C151.622 57.8275 152.081 58.2832 152.081 58.8462V59.0195C152.081 59.5819 151.622 60.0382 151.056 60.0382H145.213C145.017 60.0382 144.858 60.1956 144.858 60.3905V65.9583C144.858 66.1525 145.017 66.3105 145.213 66.3105H153.21C153.776 66.3105 154.235 66.7663 154.235 67.3293L154.235 67.3286ZM264.819 76.3632V76.5365C264.819 77.0988 264.361 77.5552 263.794 77.5552H251.665C251.099 77.5552 250.64 77.0995 250.64 76.5365V58.8462C250.64 58.2839 251.098 57.8275 251.665 57.8275H260.202C260.768 57.8275 261.227 58.2832 261.227 58.8462V59.0195C261.227 59.5819 260.768 60.0382 260.202 60.0382H253.71C253.515 60.0382 253.356 60.1956 253.356 60.3905V65.9583C253.356 66.1525 253.514 66.3105 253.71 66.3105H262.936C263.502 66.3105 263.961 66.7663 263.961 67.3293V67.5025C263.961 68.0649 263.503 68.5213 262.936 68.5213H253.356V74.9935C253.356 75.1877 253.514 75.3458 253.71 75.3458H263.794C264.36 75.3458 264.819 75.8015 264.819 76.3645V76.3632Z" fill="black"/>
<path d="M195.932 17.5845C196.173 18.5613 195.572 19.547 194.589 19.7857C193.606 20.025 192.614 19.427 192.374 18.4502C192.133 17.4734 192.734 16.4877 193.717 16.249C194.7 16.0097 195.692 16.6076 195.932 17.5845Z" fill="#FF913C"/>
<path d="M49.6499 27.9949C48.6995 28.4202 48.276 29.531 48.704 30.4754C49.1319 31.4199 50.2497 31.8407 51.2001 31.4154C52.1505 30.9902 52.574 29.8794 52.146 28.935C51.7181 27.9905 50.6003 27.5697 49.6499 27.9949Z" fill="#FF913C"/>
<path d="M113.082 14.1318C112.04 14.1318 111.195 14.9716 111.195 16.0074C111.195 17.0433 112.04 17.883 113.082 17.883C114.124 17.883 114.97 17.0433 114.97 16.0074C114.97 14.9716 114.124 14.1318 113.082 14.1318Z" fill="#FF913C"/>
<path d="M226.184 27.9949C225.234 28.4202 224.81 29.531 225.238 30.4754C225.666 31.4199 226.784 31.8407 227.734 31.4154C228.685 30.9902 229.108 29.8794 228.68 28.935C228.252 27.9905 227.134 27.5697 226.184 27.9949Z" fill="#FF913C"/>
<path d="M288.113 17.883C289.155 17.883 290 17.0433 290 16.0074C290 14.9716 289.155 14.1318 288.113 14.1318C287.07 14.1318 286.225 14.9716 286.225 16.0074C286.225 17.0433 287.07 17.883 288.113 17.883Z" fill="#FF913C"/>
<path d="M13.1135 3.4102C14.0613 3.4102 14.8291 2.64663 14.8291 1.70534C14.8291 0.764055 14.0607 0.000488281 13.1135 0.000488281C12.1663 0.000488281 11.3979 0.764055 11.3979 1.70534C11.3979 2.64663 12.1663 3.4102 13.1135 3.4102Z" fill="#FF913C"/>
<path d="M144.294 10.0072C143.518 9.31537 142.324 9.38012 141.628 10.1513C140.932 10.9225 140.997 12.1081 141.773 12.8C142.549 13.4918 143.742 13.4271 144.439 12.6559C145.135 11.8847 145.07 10.6991 144.294 10.0072Z" fill="#FF913C"/>
<path d="M198.556 67.6997L198.557 67.7035L198.556 67.708V67.6997Z" fill="#FF913C"/>
<path d="M201.272 67.7038C201.27 68.4445 200.665 69.0443 199.919 69.0443H199.91C199.164 69.0443 198.56 68.4445 198.557 67.7038C198.56 66.9631 199.164 66.3633 199.91 66.3633H199.919C200.665 66.3633 201.27 66.9631 201.272 67.7038Z" fill="#FF913C"/>
<path d="M123.979 67.7035L123.979 67.6997V67.708L123.979 67.7035Z" fill="#FF913C"/>
<path d="M123.979 67.7038C123.976 68.4445 123.372 69.0443 122.626 69.0443H122.616C121.87 69.0443 121.266 68.4445 121.263 67.7038C121.266 66.9631 121.87 66.3633 122.616 66.3633H122.626C123.372 66.3633 123.976 66.9631 123.979 67.7038Z" fill="#FF913C"/>
<path d="M34.6995 67.6997L34.7002 67.7035L34.6995 67.708V67.6997Z" fill="#FF913C"/>
<path d="M37.4147 67.7035L37.4153 67.6997V67.708L37.4147 67.7035Z" fill="#FF913C"/>
<path d="M37.4147 67.7038C37.4121 68.4445 36.8079 69.0443 36.0619 69.0443H36.0523C35.3063 69.0443 34.7021 68.4445 34.6995 67.7038C34.7021 66.9631 35.3063 66.3633 36.0523 66.3633H36.0619C36.8079 66.3633 37.4121 66.9631 37.4147 67.7038Z" fill="#FF913C"/>
<path d="M80.309 76.2236L80.3096 76.2281L80.309 76.2319V76.2236Z" fill="#FF913C"/>
<path d="M83.0241 76.2281L83.0248 76.2236V76.2319L83.0241 76.2281Z" fill="#FF913C"/>
<path d="M83.0241 76.2277C83.0216 76.9685 82.4174 77.5683 81.6713 77.5683H81.6618C80.9157 77.5683 80.3115 76.9685 80.309 76.2277C80.3115 75.487 80.9157 74.8872 81.6618 74.8872H81.6713C82.4174 74.8872 83.0216 75.487 83.0241 76.2277Z" fill="#FF913C"/>
<path d="M273.796 76.2236L273.797 76.2281L273.796 76.2319V76.2236Z" fill="#FF913C"/>
<path d="M276.512 76.2277C276.51 76.9685 275.906 77.5683 275.159 77.5683H275.15C274.404 77.5683 273.8 76.9685 273.797 76.2277C273.8 75.487 274.404 74.8872 275.15 74.8872H275.159C275.906 74.8872 276.51 75.487 276.512 76.2277Z" fill="#FF913C"/>
<path d="M178.094 76.2226L178.094 76.2188V76.227L178.094 76.2226Z" fill="#FF913C"/>
<path d="M178.094 76.2229C178.091 76.9636 177.487 77.5634 176.741 77.5634H176.731C175.985 77.5634 175.381 76.9636 175.379 76.2229C175.381 75.4821 175.985 74.8823 176.731 74.8823H176.741C177.487 74.8823 178.091 75.4821 178.094 76.2229Z" fill="#FF913C"/>
<path d="M68.0967 59.1677C68.0992 58.427 68.7035 57.8271 69.4495 57.8271H69.4591C70.2051 57.8271 70.8093 58.427 70.8119 59.1677C70.8093 59.9084 70.2051 60.5082 69.4591 60.5082H69.4495C68.7035 60.5082 68.0992 59.9084 68.0967 59.1677Z" fill="#FF913C"/>
<path d="M242.318 59.1677C242.315 59.9084 241.711 60.5082 240.965 60.5082H240.956C240.21 60.5082 239.605 59.9084 239.603 59.1677C239.605 58.427 240.21 57.8271 240.956 57.8271H240.965C241.711 57.8271 242.315 58.427 242.318 59.1677Z" fill="#FF913C"/>
<path d="M241.424 59.1718L241.424 59.168L241.424 59.1636V59.1718Z" fill="#FF913C"/>
<path d="M239.602 59.1636L239.603 59.168L239.602 59.1718V59.1636Z" fill="#FF913C"/>
<path d="M16.4259 59.1718L16.4252 59.168L16.4259 59.1636V59.1718Z" fill="#FF913C"/>
<path d="M13.7107 59.168L13.71 59.1718V59.1636L13.7107 59.168Z" fill="#FF913C"/>
<path d="M13.7107 59.1677C13.7132 58.427 14.3175 57.8271 15.0635 57.8271H15.0731C15.8191 57.8271 16.4233 58.427 16.4259 59.1677C16.4233 59.9084 15.8191 60.5082 15.0731 60.5082H15.0635C14.3175 60.5082 13.7132 59.9084 13.7107 59.1677Z" fill="#FF913C"/>
<path d="M155.572 58.9316C155.57 59.5549 155.062 60.0595 154.434 60.0595H154.426C153.798 60.0595 153.29 59.5549 153.288 58.9316C153.29 58.3083 153.798 57.8037 154.426 57.8037H154.434C155.061 57.8037 155.569 58.3083 155.572 58.9316Z" fill="#FF913C"/>
<path d="M155.573 58.9357L155.572 58.9319L155.573 58.9287V58.9357Z" fill="#FF913C"/>
<path d="M262.494 58.9316C262.496 58.3083 263.004 57.8037 263.631 57.8037H263.64C264.267 57.8037 264.775 58.3083 264.777 58.9316C264.775 59.5549 264.267 60.0595 263.64 60.0595H263.631C263.004 60.0595 262.496 59.5549 262.494 58.9316Z" fill="#FF913C"/>
<path d="M262.494 58.9319L262.493 58.9357V58.9287L262.494 58.9319Z" fill="#FF913C"/>
</g>
<defs>
<clipPath id="clip0_4410_27061">
<rect width="290" height="78" fill="white"/>
</clipPath>
</defs>
</svg>
