<svg width="292" height="38" viewBox="0 0 292 38" fill="none" xmlns="http://www.w3.org/2000/svg">
<g clip-path="url(#clip0_4074_112)">
<path d="M75.8824 24.713C75.8154 24.413 75.6444 23.945 75.6434 23.643C75.6424 23.409 75.7754 23.14 76.3434 23.138C77.0134 23.134 77.1854 24.037 77.4244 24.538C78.6744 27.177 81.0984 29.509 84.2464 29.492C86.5904 29.481 88.4904 28.031 88.4784 25.587C88.4504 20.13 76.0404 22.837 75.9944 13.695C75.9774 10.247 78.7734 7.11897 82.7244 7.09897C85.5704 7.08496 87.2844 8.38197 88.3894 8.37596C88.7584 8.37396 89.4924 7.90097 89.7944 7.89996C90.2284 7.89897 90.3314 8.09697 90.3334 8.53297C90.2754 10.442 90.8264 13.486 90.8284 13.855C90.8314 14.29 90.6324 14.593 90.1634 14.595C89.5614 14.598 89.4234 14.063 89.1524 13.227C88.3684 10.787 85.5114 8.59097 82.9664 8.60397C80.9234 8.61497 79.1544 9.79696 79.1654 11.705C79.1944 17.397 91.6024 14.32 91.6484 23.561C91.6654 26.809 89.1424 30.974 84.1524 31C82.0094 31.011 80.1314 30.317 78.0874 29.926C77.7514 29.861 77.2154 29.83 77.0794 29.362L75.8824 24.713Z" fill="#1A171B"/>
<path d="M103.84 10.607C103.834 9.40197 103.029 9.13697 101.422 9.14696C98.2069 9.16297 96.7679 9.43796 95.9479 12.757C95.9159 12.959 95.7149 13.059 95.3469 13.061C94.8779 13.063 94.7429 12.863 94.7429 12.663C94.7409 12.361 94.8049 11.893 94.8369 11.524L95.1549 8.10697C95.2179 7.50297 95.3849 7.33597 96.1539 7.33198C99.5699 7.31397 102.953 7.56497 106.369 7.54698C109.784 7.52897 113.233 7.24397 116.581 7.22697C117.418 7.22198 117.519 7.32197 117.625 8.45997L117.978 11.874C118.012 12.107 118.047 12.376 118.048 12.61C118.049 12.811 117.714 12.946 117.446 12.948C117.045 12.95 116.876 12.851 116.842 12.649C115.988 9.33997 114.547 9.07797 111.333 9.09498C109.491 9.10397 108.924 9.47598 108.93 10.58L109.008 26.117C109.023 28.763 111.3 28.718 112.406 29.215C112.776 29.38 113.345 29.277 113.349 30.013C113.352 30.549 112.95 30.551 112.548 30.553C110.572 30.564 108.528 30.307 106.485 30.316C104.444 30.327 102.402 30.605 100.425 30.615C100.026 30.618 99.6229 30.62 99.6199 30.084C99.6159 29.346 100.185 29.445 100.554 29.275C101.655 28.767 103.933 28.789 103.919 26.144L103.84 10.607Z" fill="#1A171B"/>
<path d="M133.29 6.84026C140.153 6.80326 145.567 11.2293 145.605 18.3293C145.642 25.8633 138.903 30.7193 131.939 30.7553C125.073 30.7903 119.961 26.2633 119.926 19.4653C119.89 12.2653 126.324 6.87626 133.29 6.84026ZM133.504 29.2403C137.455 29.2193 140.213 24.9872 140.188 20.1982C140.166 15.6433 137.382 8.32525 132.024 8.35325C128.073 8.37324 125.315 12.6062 125.341 17.3952C125.363 21.9482 128.147 29.2683 133.504 29.2403Z" fill="#1A171B"/>
<path d="M150.291 11.1718C150.28 9.19677 149.139 8.59977 147.732 8.40676C147.296 8.34276 147.027 8.14277 147.024 7.60577C147.023 7.27177 147.156 7.06977 147.959 7.06576C148.763 7.06176 149.669 7.32476 152.045 7.31277C153.854 7.30377 156.329 7.02276 157.803 7.01377C162.291 6.99177 166.95 7.80576 166.977 13.3298C166.989 15.6078 165.856 16.7848 164.488 17.5958C163.821 17.9678 162.85 18.1738 162.851 18.5088C162.854 19.0108 166.638 25.6888 168.289 27.5218C168.626 27.8878 168.895 28.0878 169.195 28.0868C169.564 28.0838 169.932 27.9818 170.233 27.9808C170.635 27.9788 170.77 28.2118 170.772 28.5798C170.78 30.0198 166.83 30.2418 165.724 30.2468C164.753 30.2508 163.578 29.5878 162.834 28.2518L158.88 21.1068C158.306 20.0728 157.764 19.2368 156.527 19.2428C155.656 19.2478 155.422 19.4168 155.425 19.8518L155.453 25.5438C155.468 28.2898 156.61 28.8878 158.016 28.9808C158.451 29.0128 158.721 29.2448 158.724 29.7808C158.726 30.2158 158.325 30.3188 156.784 30.3268C155.445 30.3328 154.105 30.0728 152.764 30.0788C151.425 30.0858 150.088 30.3608 148.748 30.3678C148.28 30.3708 147.778 30.3728 147.775 29.8358C147.772 29.3008 148.34 29.1298 148.674 29.0288C149.978 28.6198 150.373 27.3458 150.368 26.2418L150.291 11.1718ZM155.408 16.6378C155.41 17.0398 155.414 17.8098 157.557 17.7978C160.571 17.7838 161.803 16.3708 161.785 13.0228C161.773 10.6108 160.321 8.27376 157.442 8.28876C155.667 8.29875 155.368 8.83477 155.374 10.0418L155.408 16.6378Z" fill="#1A171B"/>
<path d="M187.127 11.586C187.526 10.915 187.624 10.378 187.621 9.94295C187.617 9.00496 186.476 8.57495 185.001 8.21495C184.599 8.11696 184.33 7.95096 184.327 7.41495C184.324 6.87996 184.692 6.87796 185.095 6.87595C186.267 6.86995 187.44 7.13095 188.611 7.12595C189.783 7.11896 190.954 6.84496 192.127 6.83896C192.495 6.83795 192.896 6.83595 192.899 7.37096C192.902 7.90696 192.601 7.94196 192.033 8.17896C190.997 8.61995 190.53 9.22495 189.269 11.341L184.986 18.495C184.555 19.201 184.189 19.705 184.191 20.308L184.219 25.564C184.228 27.238 184.736 28.442 186.478 28.667C187.25 28.763 187.952 28.794 187.956 29.464C187.959 30.166 187.023 30.171 186.084 30.176C184.578 30.184 183.069 29.924 181.461 29.932C180.323 29.938 178.817 30.213 177.312 30.222C176.373 30.226 175.437 30.231 175.433 29.527C175.43 28.858 176.132 28.821 176.902 28.716C178.642 28.473 179.138 27.264 179.129 25.59L179.107 21.405C179.105 21.0699 179.004 20.8029 178.835 20.537L173.697 11.1199C172.548 9.04894 171.741 8.41694 170.837 8.28895C170.065 8.15695 169.428 8.02694 169.426 7.49195C169.423 6.95495 169.992 6.95295 170.596 6.94895C172.102 6.94195 173.609 7.20194 175.117 7.19395C176.624 7.18595 178.13 6.91195 179.637 6.90394C180.239 6.89895 180.808 6.89695 180.811 7.43194C180.814 7.96894 179.877 7.97395 179.376 8.24294C178.941 8.48095 178.641 8.71795 178.643 8.98394C178.646 9.55395 178.917 10.155 179.288 10.8219L182.365 16.466C182.871 17.3999 183.14 17.701 183.342 17.6999C183.475 17.699 183.94 17.061 184.273 16.49L187.127 11.586Z" fill="#1A171B"/>
<path d="M222.145 22.6915C222.414 22.9245 222.817 23.2915 223.186 23.2895C224.158 23.2835 224.212 21.0405 224.209 20.4375C224.2 18.6295 223.494 17.8635 221.787 17.8715C220.814 17.8765 220.645 17.6435 220.643 17.1075C220.64 16.5035 220.84 16.4025 221.476 16.3995C222.414 16.3945 223.353 16.5235 224.289 16.5195C225.261 16.5135 226.232 16.3755 227.17 16.3705C227.771 16.3675 228.073 16.4995 228.076 17.0685C228.079 17.7715 226.841 17.7445 226.61 18.6495C226.316 19.8235 226.221 20.8295 225.925 21.9025C225.629 22.9755 224.463 24.1865 224.463 24.3195C224.466 24.7895 227.996 27.5505 229.001 27.5455C229.57 27.5435 229.938 27.4065 230.306 27.4045C230.909 27.4015 231.178 27.6015 231.179 27.8685C231.186 29.1415 228.01 30.2625 226.471 30.2705C223.423 30.2855 222.006 28.0165 220.765 27.7885C218.33 29.7095 215.689 30.3265 212.607 30.3415C207.786 30.3655 203.116 27.4105 203.09 22.3205C203.074 19.1395 205.303 16.4155 208.109 15.0615C207.736 13.9915 207.497 13.1225 207.489 11.5495C207.473 8.43446 210.375 6.44547 213.322 6.42947C216.169 6.41546 217.446 7.51347 218.35 7.50947C219.087 7.50546 219.453 7.16746 219.789 7.16546C220.124 7.16447 220.158 7.39846 220.194 7.80045L220.586 12.5545C220.621 12.8215 220.656 13.0555 220.657 13.2895C220.659 13.6575 220.593 13.8595 220.157 13.8615C219.622 13.8645 219.453 13.6315 219.417 13.0945C219.237 10.5845 216.445 8.02044 213.966 8.03345C212.56 8.04146 211.797 9.28345 211.803 10.5555C211.823 14.2735 219.656 20.5265 222.145 22.6915ZM208.552 16.3985C207.613 16.4035 207.015 17.1425 207.025 19.1525C207.036 21.2615 211.59 27.8695 216.512 27.8434C217.885 27.8365 219.323 27.3605 219.321 26.8575C219.319 26.6235 219.151 26.3564 218.814 26.0905C214.711 22.6635 212.319 19.7944 210.737 18.0955C209.76 17.0294 209.12 16.3955 208.552 16.3985Z" fill="#1A171B"/>
<path d="M262.207 11.837C262.277 12.473 262.448 13.177 262.45 13.577C262.452 13.945 262.287 14.382 261.953 14.383C261.551 14.385 261.179 13.585 261.043 13.35C258.914 9.64499 256.059 7.71699 253.146 7.73199C248.893 7.75399 245.791 10.18 245.829 17.48C245.855 22.637 249.161 27.475 253.682 27.452C256.494 27.438 259.099 25.983 260.864 24.201C261.265 23.797 261.764 23.125 262.298 23.122C262.567 23.12 262.668 23.287 262.669 23.589C262.674 24.594 259.086 30.104 252.055 30.14C246.429 30.168 240.449 26.147 240.412 19.014C240.364 9.67199 246.608 6.25799 252.367 6.22999C256.051 6.20999 258.873 7.96998 259.776 7.96598C260.613 7.96098 260.307 6.92498 261.244 6.91997C261.546 6.91997 261.647 7.11898 261.682 7.28598L262.207 11.837Z" fill="#1A171B"/>
<path d="M283.153 21.7427C283.176 26.0957 279.781 29.9977 275.027 30.0207C270.472 30.0457 266.304 27.0857 266.279 22.3307C266.257 17.7437 269.857 14.5767 274.713 14.5517C278.631 14.5327 283.131 17.0887 283.153 21.7427ZM270.798 21.7057C270.819 25.6227 272.877 28.6927 275.12 28.6827C277.967 28.6667 278.656 26.0187 278.641 23.2057C278.619 18.9527 276.829 15.8807 274.317 15.8947C271.472 15.9097 270.782 18.5577 270.798 21.7057Z" fill="#1A171B"/>
<path d="M286.363 26.6822C286.354 25.1082 287.553 23.8962 289.06 23.8882C290.668 23.8802 291.78 25.2142 291.787 26.6542C291.795 28.1942 290.696 29.3712 289.088 29.3802C287.749 29.3872 286.371 28.3222 286.363 26.6822Z" fill="#1A171B"/>
<path d="M32.7442 1.48497C21.8042 2.89898 10.8962 5.08597 0.000183105 2.21897V5.81197C10.8962 8.68097 21.8042 6.49297 32.7442 5.07697V1.48497Z" fill="#32B8C9"/>
<path d="M36.2129 1.04308V4.63808C42.3259 4.12108 48.2689 4.24707 54.2049 5.81208V2.21907C48.2679 0.653076 42.3279 0.529066 36.2129 1.04308Z" fill="#00446B"/>
<path d="M42.4693 8.19397C28.2203 8.52797 14.1603 13.404 0.000274658 9.68297V13.277C14.1603 16.999 28.2203 12.123 42.4693 11.787L42.4693 8.19397Z" fill="#32B8C9"/>
<path d="M45.939 11.8873C48.762 12.1083 51.481 12.5543 54.205 13.2773V9.68328C51.481 8.95827 48.762 8.51427 45.939 8.29427V11.8873Z" fill="#00446B"/>
<path d="M17.542 18.3605C11.581 18.8365 5.785 18.6745 0 17.1475V20.7415C5.78299 22.2675 11.581 22.4305 17.542 21.9535C17.543 20.7555 17.543 19.5595 17.542 18.3605Z" fill="#32B8C9"/>
<path d="M21.0113 21.5304C32.1023 20.1254 43.1553 17.8344 54.2053 20.7414V17.1474C43.1543 14.2414 32.1053 16.5334 21.0113 17.9374C21.0123 19.1344 21.0123 20.3314 21.0113 21.5304Z" fill="#00446B"/>
<path d="M30.2095 24.214C20.1035 25.621 10.0465 27.252 0.000457764 24.612V28.205C10.0465 30.843 20.1035 29.213 30.2095 27.806V24.214Z" fill="#32B8C9"/>
<path d="M33.6783 27.2965C40.6263 26.5335 47.4213 26.4175 54.2053 28.2055V24.6115C47.4203 22.8265 40.6263 22.9405 33.6783 23.7045C33.6803 24.9005 33.6783 26.0995 33.6783 27.2965Z" fill="#00446B"/>
<path d="M11.9688 37.1573C26.1368 36.7693 40.1228 31.9663 54.2048 35.6703V32.0753C40.1218 28.3733 26.1388 33.1763 11.9688 33.5623C11.9698 34.7603 11.9688 35.9583 11.9688 37.1573Z" fill="#00446B"/>
<path d="M8.49857 33.4801C5.59458 33.2661 2.80256 32.8201 0.000579834 32.0761V35.6701C2.80255 36.4121 5.59457 36.8601 8.49857 37.0741V33.4801Z" fill="#32B8C9"/>
</g>
<defs>
<clipPath id="clip0_4074_112">
<rect width="291.787" height="36.3858" fill="white" transform="translate(0 0.771515)"/>
</clipPath>
</defs>
</svg>
