<svg width="292" height="38" viewBox="0 0 292 37" fill="none" xmlns="http://www.w3.org/2000/svg">
<g clip-path="url(#clip0_4074_153)">
<path d="M75.8824 23.9414C75.8154 23.6414 75.6444 23.1734 75.6434 22.8714C75.6424 22.6374 75.7754 22.3684 76.3434 22.3664C77.0134 22.3624 77.1854 23.2654 77.4244 23.7664C78.6744 26.4054 81.0984 28.7374 84.2464 28.7204C86.5904 28.7094 88.4904 27.2594 88.4784 24.8154C88.4504 19.3584 76.0404 22.0654 75.9944 12.9234C75.9774 9.47543 78.7734 6.34744 82.7244 6.32744C85.5704 6.31343 87.2844 7.61044 88.3894 7.60443C88.7584 7.60243 89.4924 7.12944 89.7944 7.12843C90.2284 7.12744 90.3314 7.32544 90.3334 7.76144C90.2754 9.67044 90.8264 12.7144 90.8284 13.0834C90.8314 13.5184 90.6324 13.8214 90.1634 13.8234C89.5614 13.8264 89.4234 13.2914 89.1524 12.4554C88.3684 10.0154 85.5114 7.81944 82.9664 7.83244C80.9234 7.84344 79.1544 9.02543 79.1654 10.9334C79.1944 16.6254 91.6024 13.5484 91.6484 22.7894C91.6654 26.0374 89.1424 30.2024 84.1524 30.2284C82.0094 30.2394 80.1314 29.5454 78.0874 29.1544C77.7514 29.0894 77.2154 29.0584 77.0794 28.5904L75.8824 23.9414Z" fill="#1A171B"/>
<path d="M103.84 9.83546C103.834 8.63046 103.029 8.36546 101.422 8.37545C98.2069 8.39146 96.7679 8.66645 95.9479 11.9854C95.9159 12.1875 95.7149 12.2874 95.3469 12.2894C94.8779 12.2914 94.7429 12.0914 94.7429 11.8915C94.7409 11.5895 94.8049 11.1215 94.8369 10.7525L95.1549 7.33546C95.2179 6.73146 95.3849 6.56446 96.1539 6.56047C99.5699 6.54246 102.953 6.79346 106.369 6.77547C109.784 6.75746 113.233 6.47246 116.581 6.45546C117.418 6.45047 117.519 6.55046 117.625 7.68846L117.978 11.1025C118.012 11.3355 118.047 11.6045 118.048 11.8385C118.049 12.0395 117.714 12.1745 117.446 12.1765C117.045 12.1785 116.876 12.0795 116.842 11.8775C115.988 8.56846 114.547 8.30646 111.333 8.32347C109.491 8.33246 108.924 8.70447 108.93 9.80847L109.008 25.3455C109.023 27.9915 111.3 27.9465 112.406 28.4435C112.776 28.6085 113.345 28.5055 113.349 29.2415C113.352 29.7775 112.95 29.7795 112.548 29.7815C110.572 29.7925 108.528 29.5355 106.485 29.5445C104.444 29.5555 102.402 29.8335 100.425 29.8435C100.026 29.8465 99.6229 29.8485 99.6199 29.3125C99.6159 28.5745 100.185 28.6735 100.554 28.5035C101.655 27.9955 103.933 28.0175 103.919 25.3725L103.84 9.83546Z" fill="#1A171B"/>
<path d="M133.29 6.06874C140.153 6.03174 145.567 10.4577 145.605 17.5577C145.642 25.0917 138.903 29.9477 131.939 29.9837C125.073 30.0187 119.961 25.4917 119.926 18.6937C119.89 11.4937 126.324 6.10474 133.29 6.06874ZM133.504 28.4687C137.455 28.4477 140.213 24.2157 140.188 19.4267C140.166 14.8717 137.382 7.55373 132.024 7.58173C128.073 7.60172 125.315 11.8347 125.341 16.6237C125.363 21.1767 128.147 28.4967 133.504 28.4687Z" fill="#1A171B"/>
<path d="M150.291 10.4003C150.28 8.42526 149.139 7.82826 147.732 7.63525C147.296 7.57125 147.027 7.37126 147.024 6.83426C147.023 6.50026 147.156 6.29826 147.959 6.29425C148.763 6.29025 149.669 6.55325 152.045 6.54126C153.854 6.53226 156.329 6.25125 157.803 6.24226C162.291 6.22026 166.95 7.03425 166.977 12.5583C166.989 14.8363 165.856 16.0133 164.488 16.8242C163.821 17.1963 162.85 17.4022 162.851 17.7373C162.854 18.2393 166.638 24.9172 168.289 26.7503C168.626 27.1163 168.895 27.3162 169.195 27.3153C169.564 27.3122 169.932 27.2102 170.233 27.2093C170.635 27.2073 170.77 27.4403 170.772 27.8083C170.78 29.2483 166.83 29.4703 165.724 29.4752C164.753 29.4793 163.578 28.8162 162.834 27.4802L158.88 20.3352C158.306 19.3012 157.764 18.4652 156.527 18.4712C155.656 18.4762 155.422 18.6453 155.425 19.0803L155.453 24.7723C155.468 27.5183 156.61 28.1162 158.016 28.2093C158.451 28.2413 158.721 28.4732 158.724 29.0093C158.726 29.4443 158.325 29.5472 156.784 29.5552C155.445 29.5613 154.105 29.3012 152.764 29.3072C151.425 29.3142 150.088 29.5892 148.748 29.5962C148.28 29.5993 147.778 29.6012 147.775 29.0642C147.772 28.5292 148.34 28.3583 148.674 28.2573C149.978 27.8482 150.373 26.5743 150.368 25.4703L150.291 10.4003ZM155.408 15.8663C155.41 16.2682 155.414 17.0383 157.557 17.0263C160.571 17.0122 161.803 15.5993 161.785 12.2512C161.773 9.83925 160.321 7.50225 157.442 7.51725C155.667 7.52724 155.368 8.06326 155.374 9.27026L155.408 15.8663Z" fill="#1A171B"/>
<path d="M187.127 10.8144C187.526 10.1434 187.624 9.60646 187.621 9.17144C187.617 8.23345 186.476 7.80344 185.001 7.44344C184.599 7.34545 184.33 7.17945 184.327 6.64344C184.324 6.10845 184.692 6.10645 185.095 6.10444C186.267 6.09844 187.44 6.35944 188.611 6.35444C189.783 6.34745 190.954 6.07345 192.127 6.06745C192.495 6.06644 192.896 6.06444 192.899 6.59945C192.902 7.13545 192.601 7.17045 192.033 7.40745C190.997 7.84844 190.53 8.45344 189.269 10.5694L184.986 17.7234C184.555 18.4294 184.189 18.9334 184.191 19.5364L184.219 24.7924C184.228 26.4664 184.736 27.6704 186.478 27.8954C187.25 27.9914 187.952 28.0224 187.956 28.6924C187.959 29.3944 187.023 29.3994 186.084 29.4044C184.578 29.4124 183.069 29.1524 181.461 29.1604C180.323 29.1664 178.817 29.4414 177.312 29.4504C176.373 29.4544 175.437 29.4594 175.433 28.7554C175.43 28.0864 176.132 28.0494 176.902 27.9444C178.642 27.7014 179.138 26.4924 179.129 24.8184L179.107 20.6334C179.105 20.2984 179.004 20.0314 178.835 19.7654L173.697 10.3484C172.548 8.27743 171.741 7.64543 170.837 7.51744C170.065 7.38544 169.428 7.25543 169.426 6.72044C169.423 6.18344 169.992 6.18144 170.596 6.17744C172.102 6.17044 173.609 6.43043 175.117 6.42244C176.624 6.41444 178.13 6.14044 179.637 6.13243C180.239 6.12744 180.808 6.12544 180.811 6.66043C180.814 7.19743 179.877 7.20244 179.376 7.47143C178.941 7.70944 178.641 7.94644 178.643 8.21243C178.646 8.78244 178.917 9.38344 179.288 10.0504L182.365 15.6944C182.871 16.6284 183.14 16.9294 183.342 16.9284C183.475 16.9274 183.94 16.2894 184.273 15.7184L187.127 10.8144Z" fill="#1A171B"/>
<path d="M222.145 21.9199C222.414 22.1529 222.817 22.52 223.186 22.518C224.158 22.5119 224.212 20.2689 224.209 19.6659C224.2 17.8579 223.494 17.0919 221.787 17.1C220.814 17.1049 220.645 16.8719 220.643 16.3359C220.64 15.7319 220.84 15.6309 221.476 15.628C222.414 15.623 223.353 15.7519 224.289 15.748C225.261 15.742 226.232 15.604 227.17 15.599C227.771 15.5959 228.073 15.728 228.076 16.297C228.079 17 226.841 16.9729 226.61 17.878C226.316 19.052 226.221 20.058 225.925 21.131C225.629 22.204 224.463 23.415 224.463 23.548C224.466 24.018 227.996 26.779 229.001 26.774C229.57 26.772 229.938 26.635 230.306 26.633C230.909 26.63 231.178 26.83 231.179 27.097C231.186 28.3699 228.01 29.491 226.471 29.4989C223.423 29.5139 222.006 27.2449 220.765 27.017C218.33 28.938 215.689 29.5549 212.607 29.5699C207.786 29.5939 203.116 26.6389 203.09 21.5489C203.074 18.3679 205.303 15.6439 208.109 14.2899C207.736 13.22 207.497 12.3509 207.489 10.778C207.473 7.66294 210.375 5.67395 213.322 5.65795C216.169 5.64394 217.446 6.74195 218.35 6.73795C219.087 6.73394 219.453 6.39594 219.789 6.39394C220.124 6.39295 220.158 6.62694 220.194 7.02893L220.586 11.7829C220.621 12.0499 220.656 12.2839 220.657 12.5179C220.659 12.8859 220.593 13.0879 220.157 13.0899C219.622 13.0929 219.453 12.8599 219.417 12.3229C219.237 9.81294 216.445 7.24892 213.966 7.26193C212.56 7.26994 211.797 8.51194 211.803 9.78394C211.823 13.5019 219.656 19.755 222.145 21.9199ZM208.552 15.6269C207.613 15.6319 207.015 16.3709 207.025 18.3809C207.036 20.4899 211.59 27.0979 216.512 27.0719C217.885 27.0649 219.323 26.5889 219.321 26.0859C219.319 25.8519 219.151 25.5849 218.814 25.3189C214.711 21.8919 212.319 19.0229 210.737 17.3239C209.76 16.2579 209.12 15.6239 208.552 15.6269Z" fill="#1A171B"/>
<path d="M262.207 11.0655C262.277 11.7015 262.448 12.4055 262.45 12.8055C262.452 13.1735 262.287 13.6105 261.953 13.6115C261.551 13.6135 261.179 12.8135 261.043 12.5785C258.914 8.87347 256.059 6.94547 253.146 6.96047C248.893 6.98247 245.791 9.40847 245.829 16.7085C245.855 21.8655 249.161 26.7035 253.682 26.6805C256.494 26.6665 259.099 25.2115 260.864 23.4295C261.265 23.0255 261.764 22.3535 262.298 22.3505C262.567 22.3485 262.668 22.5155 262.669 22.8175C262.674 23.8225 259.086 29.3325 252.055 29.3685C246.429 29.3965 240.449 25.3755 240.412 18.2425C240.364 8.90047 246.608 5.48647 252.367 5.45847C256.051 5.43847 258.873 7.19846 259.776 7.19446C260.613 7.18946 260.307 6.15346 261.244 6.14845C261.546 6.14845 261.647 6.34746 261.682 6.51446L262.207 11.0655Z" fill="#1A171B"/>
<path d="M283.153 20.9712C283.176 25.3242 279.781 29.2261 275.027 29.2492C270.472 29.2741 266.304 26.3142 266.279 21.5592C266.257 16.9721 269.857 13.8052 274.713 13.7801C278.631 13.7611 283.131 16.3172 283.153 20.9712ZM270.798 20.9342C270.819 24.8512 272.877 27.9212 275.12 27.9112C277.967 27.8952 278.656 25.2472 278.641 22.4342C278.619 18.1811 276.829 15.1092 274.317 15.1232C271.472 15.1382 270.782 17.7862 270.798 20.9342Z" fill="#1A171B"/>
<path d="M286.363 25.9107C286.354 24.3366 287.553 23.1247 289.06 23.1166C290.668 23.1086 291.78 24.4426 291.787 25.8827C291.795 27.4226 290.696 28.5997 289.088 28.6087C287.749 28.6157 286.371 27.5507 286.363 25.9107Z" fill="#1A171B"/>
<path d="M32.7442 0.713455C21.8042 2.12747 10.8962 4.31446 0.000183105 1.44746V5.04046C10.8962 7.90946 21.8042 5.72146 32.7442 4.30546V0.713455Z" fill="#B1B3B4"/>
<path d="M36.2129 0.271561V3.86656C42.3259 3.34956 48.2689 3.47555 54.2049 5.04056V1.44755C48.2679 -0.118439 42.3279 -0.242449 36.2129 0.271561Z" fill="#1A171B"/>
<path d="M42.4693 7.42245C28.2203 7.75645 14.1603 12.6325 0.000274658 8.91146V12.5054C14.1603 16.2275 28.2203 11.3515 42.4693 11.0155L42.4693 7.42245Z" fill="#B1B3B4"/>
<path d="M45.939 11.1158C48.762 11.3367 51.481 11.7828 54.205 12.5058V8.91176C51.481 8.18675 48.762 7.74275 45.939 7.52275V11.1158Z" fill="#1A171B"/>
<path d="M17.542 17.589C11.581 18.065 5.785 17.903 0 16.376V19.97C5.78299 21.496 11.581 21.659 17.542 21.182C17.543 19.984 17.543 18.788 17.542 17.589Z" fill="#B1B3B4"/>
<path d="M21.0113 20.7589C32.1023 19.3539 43.1553 17.0629 54.2053 19.9699V16.3759C43.1543 13.4699 32.1053 15.7619 21.0113 17.1659C21.0123 18.3629 21.0123 19.5599 21.0113 20.7589Z" fill="#1A171B"/>
<path d="M30.2095 23.4425C20.1035 24.8495 10.0465 26.4804 0.000457764 23.8404V27.4334C10.0465 30.0714 20.1035 28.4414 30.2095 27.0344V23.4425Z" fill="#B1B3B4"/>
<path d="M33.6783 26.525C40.6263 25.762 47.4213 25.646 54.2053 27.434V23.84C47.4203 22.055 40.6263 22.169 33.6783 22.933C33.6803 24.129 33.6783 25.3279 33.6783 26.525Z" fill="#1A171B"/>
<path d="M11.9688 36.3858C26.1368 35.9978 40.1228 31.1948 54.2048 34.8988V31.3038C40.1218 27.6018 26.1388 32.4048 11.9688 32.7908C11.9698 33.9888 11.9688 35.1868 11.9688 36.3858Z" fill="#1A171B"/>
<path d="M8.49857 32.7086C5.59458 32.4946 2.80256 32.0486 0.000579834 31.3046V34.8986C2.80255 35.6406 5.59457 36.0886 8.49857 36.3026V32.7086Z" fill="#B1B3B4"/>
</g>
<defs>
<clipPath id="clip0_4074_153">
<rect width="291.787" height="36.3858" fill="white"/>
</clipPath>
</defs>
</svg>
