<svg width="340" height="36" viewBox="0 0 340 36" fill="none" xmlns="http://www.w3.org/2000/svg">
<g clip-path="url(#clip0_4395_21455)">
<path d="M7.45527 8.80648C19.9436 17.9133 32.2588 26.8942 44.7432 35.9985V8.84846C57.1526 17.8981 69.4557 26.8698 81.9328 35.9689V8.81812C94.4113 17.9186 106.742 26.9118 119.141 35.9548C119.683 35.2148 120.199 34.5087 120.735 33.7755C105.303 22.5207 89.9447 11.3196 74.4223 -0.00146484V27.15C61.9756 18.0732 49.6661 9.09653 37.2289 0.0264049V27.1772C24.7705 18.0915 12.4491 9.10607 0.0499664 0.0634506C0.0256171 0.303765 0.00233747 0.428313 0.00233747 0.552887C-0.000139459 10.3397 -0.00648334 20.1261 0.0227981 29.9122C0.0238634 30.2545 0.29698 30.7044 0.582446 30.9193C2.65096 32.4776 4.75406 33.9893 6.84939 35.5116C7.00325 35.6234 7.18074 35.7025 7.45527 35.8581V8.80648Z" fill="white"/>
<path d="M7.45536 8.80639V35.858C7.18083 35.7027 7.00334 35.6233 6.84948 35.5115C4.75415 33.9892 2.6507 32.4775 0.58254 30.9196C0.297069 30.7044 0.0239487 30.2544 0.0228878 29.9125C-0.00639364 20.126 -4.54278e-05 10.3396 0.00207209 0.553148C0.00207209 0.428232 0.0257155 0.303663 0.0497097 0.0637121C12.4492 9.10597 24.7703 18.0914 37.2286 27.1771V0.0263027C49.6662 9.09645 61.9757 18.0731 74.4221 27.1499V-0.0012207C89.9448 11.3195 105.303 22.521 120.735 33.7757C120.199 34.5086 119.682 35.2147 119.141 35.9547C106.742 26.9117 94.4114 17.9189 81.9329 8.81804V35.9692C69.4554 26.8701 57.1523 17.8981 44.743 8.84839V35.9984C32.2589 26.8944 19.9437 17.9136 7.45536 8.80639Z" fill="black"/>
<path d="M132.226 32.0745C133.926 31.9882 134.899 31.9091 135.144 31.8368C135.303 31.7793 135.436 31.6854 135.544 31.556C135.652 31.4262 135.742 31.1598 135.814 30.7559C135.901 30.2087 136.001 28.883 136.117 26.7787C136.174 25.5828 136.203 24.0266 136.203 22.1101V15.1715L136.117 8.88138C136.103 7.82967 136.059 7.14503 135.987 6.82787C135.915 6.51113 135.811 6.27664 135.674 6.12546C135.537 5.97407 135.31 5.85524 134.993 5.76876C134.676 5.68228 133.753 5.58883 132.226 5.48776V3.67212C134.056 3.7586 135.404 3.80173 136.268 3.80173L139.402 3.73703L141.391 3.67212C144.359 7.54867 147.955 12.0156 152.177 17.0736C155.217 20.7193 157.739 23.5729 159.742 25.6332V20.6402C159.742 12.8877 159.656 8.32677 159.483 6.95769C159.425 6.42465 159.296 6.07873 159.094 5.92015C158.762 5.66072 157.638 5.51694 155.722 5.48776V3.67212C157.48 3.7586 159.094 3.80173 160.564 3.80173C161.99 3.80173 163.828 3.7586 166.076 3.67212V5.48776C164.318 5.5311 163.273 5.66071 162.941 5.87681C162.826 5.94912 162.747 6.05716 162.704 6.20116C162.488 6.92174 162.347 8.56802 162.282 11.1402C162.218 13.7124 162.185 15.6111 162.185 16.8358C162.185 26.4189 162.279 32.2335 162.466 34.2794L162.185 34.4739C160.974 34.2718 159.742 34.0848 158.489 33.9119C153.834 28.71 147.234 20.8994 138.689 10.4809V21.2453C138.689 23.479 138.732 25.8061 138.819 28.2271C138.876 29.8987 138.963 30.9149 139.078 31.2748C139.136 31.4478 139.233 31.5882 139.37 31.6964C139.507 31.8042 139.748 31.8799 140.094 31.9231C141.031 32.0389 141.715 32.096 142.148 32.096C142.234 32.096 142.378 32.0893 142.58 32.0745V33.8256C139.842 33.7969 138.286 33.7821 137.911 33.7821C136.513 33.7821 134.618 33.8256 132.226 33.9119V32.0745Z" fill="#231815"/>
<path d="M186.568 30.5829L185.617 32.7015C184.435 33.4221 183.217 33.9549 181.964 34.3008C181.027 34.5457 179.961 34.6683 178.765 34.6683C177.338 34.6683 176.081 34.5025 174.993 34.171C173.904 33.8399 172.975 33.3857 172.204 32.8093C171.434 32.2334 170.757 31.5271 170.173 30.6911C169.589 29.8555 169.168 28.8901 168.908 27.7948C168.649 26.6995 168.519 25.5036 168.519 24.2067C168.519 22.3189 168.771 20.6329 169.276 19.1486C169.621 18.1111 170.025 17.3619 170.486 16.9006C170.774 16.6124 171.524 16.0721 172.734 15.2794C173.944 14.487 174.823 13.9683 175.371 13.723C176.38 13.2767 177.568 13.053 178.938 13.053C180.868 13.053 182.453 13.4566 183.693 14.2635C184.932 15.0708 185.808 16.1007 186.319 17.3545C186.831 18.6081 187.086 20.1288 187.086 21.9155C187.086 22.3189 187.072 22.708 187.043 23.0826C186.683 23.1981 186.136 23.3279 185.401 23.4717C184.421 23.659 183.758 23.7601 183.412 23.7741C182.332 23.8607 180.905 23.9115 179.132 23.9254C177.359 23.9398 176.38 23.9546 176.192 23.9686C176.005 23.9834 175.796 23.9901 175.566 23.9901H174.139C174.255 26.2674 174.961 28.065 176.257 29.3836C177.554 30.7021 179.154 31.3614 181.056 31.3614C181.877 31.3614 182.634 31.2713 183.325 31.0912C184.017 30.911 184.925 30.5397 186.049 29.9777L186.568 30.5829ZM181.423 21.6343C181.481 19.3431 181.171 17.7364 180.494 16.8141C179.802 15.9062 178.909 15.4524 177.814 15.4524C176.69 15.4524 175.76 15.9279 175.025 16.879C174.276 17.8444 173.93 19.4298 173.988 21.6343C174.838 21.7641 176.257 21.8288 178.246 21.8288C179.514 21.8288 180.573 21.7641 181.423 21.6343Z" fill="#231815"/>
<path d="M197.31 34.0847C197.253 33.8974 197.123 33.3574 196.921 32.4634C196.806 31.9737 196.626 31.2891 196.381 30.4099L194.565 23.9686C193.801 21.2744 193.312 19.5592 193.096 18.8242C192.577 17.1097 192.209 16.1007 191.993 15.7981C191.906 15.6685 191.769 15.5748 191.583 15.5171C191.28 15.4021 190.53 15.33 189.335 15.301V13.5934C191.15 13.6366 193.096 13.6583 195.171 13.6583C197.303 13.6583 199.349 13.6366 201.309 13.5934V15.301C199.767 15.301 198.845 15.3875 198.542 15.5605C198.355 15.6613 198.262 15.8343 198.262 16.0791C198.262 16.3531 198.333 16.7709 198.478 17.333L201.093 27.1677L204.854 18.9107L206.151 16.1007L207.448 13.053H209.653L215.77 27.1677L217.91 20.813C218.227 19.8184 218.544 18.702 218.861 17.4626C219.005 16.8287 219.077 16.4109 219.077 16.2089C219.077 15.863 218.965 15.6435 218.742 15.5497C218.518 15.456 217.621 15.3733 216.051 15.301V13.5934C217.593 13.6366 219.026 13.6583 220.352 13.6583C221.649 13.6583 223.176 13.6366 224.935 13.5934V15.301C223.911 15.3587 223.364 15.3949 223.292 15.4091C223.09 15.4668 222.906 15.564 222.741 15.7008C222.575 15.8381 222.441 16 222.341 16.1872C222.24 16.3747 221.879 17.3042 221.26 18.9756C221.015 19.6239 220.59 20.8202 219.985 22.5638L218.839 25.979L218.493 26.9516C218.32 27.4561 217.859 28.8613 217.11 31.1664L216.245 34.0847H212.722C211.353 30.7994 210.561 28.9044 210.344 28.4L206.864 20.4671C205.611 23.0611 204.681 25.0317 204.076 26.379C203.471 27.7263 202.937 28.9404 202.476 30.0208L200.834 34.0847H197.31Z" fill="#231815"/>
<path d="M226.632 33.9119V32.0745C228.261 31.9594 229.226 31.8444 229.529 31.7286C229.701 31.6715 229.838 31.5704 229.939 31.4262C230.069 31.2389 230.156 30.9653 230.199 30.6045C230.299 29.7833 230.386 27.9894 230.458 25.2225C230.502 23.8824 230.523 21.5769 230.523 18.3057C230.523 15.3804 230.502 12.7905 230.458 10.5351C230.415 8.27983 230.321 6.93592 230.177 6.50373C230.119 6.30202 230.029 6.14703 229.907 6.03899C229.784 5.93094 229.55 5.84827 229.205 5.79033C228.253 5.63196 227.396 5.53851 226.632 5.50933V3.67212C229.601 3.7586 231.647 3.80173 232.771 3.80173C234.255 3.80173 235.746 3.7586 237.245 3.67212L239.147 7.95188L240.66 11.1943L247.534 25.3739C249.004 22.5351 250.106 20.3302 250.841 18.7597L253.694 12.7721C255.28 9.42921 256.249 7.37212 256.602 6.60099C256.955 5.83029 257.355 4.85386 257.801 3.67212C259.689 3.77319 260.899 3.82351 261.433 3.82351L267.874 3.67212V5.50933H267.572C266.116 5.49516 265.194 5.66452 264.805 6.01742C264.416 6.37073 264.221 7.05157 264.221 8.05993C264.221 9.25626 264.214 10.1642 264.2 10.7835L264.091 16.8573V24.4444C264.091 26.289 264.099 27.3699 264.113 27.6867C264.228 29.5169 264.329 30.6409 264.416 31.0587C264.459 31.2609 264.538 31.4228 264.653 31.545C264.769 31.6677 264.935 31.7611 265.151 31.8258C265.367 31.8909 266.275 31.9738 267.874 32.0745V33.9119L260.979 33.7821L254.235 33.9119V32.0745C256.021 32.0174 257.041 31.9125 257.294 31.7611C257.546 31.6097 257.726 31.2676 257.834 30.7344C257.942 30.2015 257.996 28.4145 257.996 25.3739V9.6379L252.981 19.7754L250.582 24.8119C249.948 26.1376 249.055 28.0618 247.902 30.583C247.196 32.1108 246.641 33.3427 246.237 34.2794H244.767C244.249 33.0691 243.499 31.4118 242.519 29.308C240.848 25.7055 239.58 23.0176 238.715 21.2453L233.03 9.6379V20.2511C233.03 22.0234 233.055 24.1311 233.106 26.5736C233.156 29.0162 233.21 30.3994 233.268 30.7238C233.325 31.0477 233.416 31.2824 233.538 31.4262C233.66 31.5704 233.877 31.693 234.187 31.7937C234.496 31.8947 235.379 31.9882 236.835 32.0745V33.9119C235.22 33.8256 233.571 33.7821 231.885 33.7821C229.68 33.7821 227.929 33.8256 226.632 33.9119Z" fill="#231815"/>
<path d="M290.462 32.2904V33.9118C288.805 33.8399 287.335 33.8035 286.052 33.8035C284.842 33.8035 283.667 33.8399 282.529 33.9118L282.335 33.6741L282.529 30.8425C282.011 31.174 280.483 32.3124 277.947 34.2577C277.298 34.4015 276.679 34.4738 276.088 34.4738C274.517 34.4738 273.289 34.0124 272.403 33.0905C271.516 32.1682 271.073 30.8425 271.073 29.1133C271.073 27.9458 271.271 26.9879 271.668 26.2382C272.064 25.4893 272.489 24.9382 272.943 24.5847C273.397 24.232 274.099 23.8895 275.05 23.558C277.327 22.7511 279.82 22.1172 282.529 21.6558C282.558 19.9411 282.205 18.6371 281.47 17.7436C280.721 16.8502 279.582 16.4035 278.055 16.4035C277.435 16.4035 276.845 16.4827 276.283 16.6411C276.037 16.7134 275.749 16.8572 275.418 17.0735L274.51 19.2566L273.04 18.9323L273.17 16.144C274.236 15.4236 275.252 14.7967 276.217 14.2635C277.183 13.7304 277.86 13.4063 278.249 13.2909C278.782 13.1325 279.532 13.053 280.497 13.053C282.068 13.053 283.362 13.2801 284.377 13.7338C285.393 14.1878 286.142 14.7248 286.625 15.3441C287.108 15.9641 287.439 16.627 287.62 17.333C287.8 18.0392 287.89 18.9323 287.89 20.013C287.89 20.4743 287.854 21.6774 287.782 23.6231C287.738 24.9196 287.717 25.979 287.717 26.8002C287.717 29.3654 287.789 30.9216 287.933 31.4692C287.99 31.7284 288.106 31.9014 288.279 31.9881C288.509 32.1035 289.237 32.2042 290.462 32.2904ZM282.529 23.4717C281.304 23.7309 280.184 24.0443 279.168 24.4118C278.152 24.7792 277.45 25.2334 277.061 25.7734C276.672 26.3139 276.477 26.9947 276.477 27.8164C276.477 28.7387 276.711 29.4521 277.18 29.9561C277.648 30.4606 278.264 30.7127 279.028 30.7127C279.676 30.7127 280.328 30.5258 280.984 30.1507C281.639 29.776 282.154 29.3007 282.529 28.7243V23.4717Z" fill="#231815"/>
<path d="M318.065 32.1827V33.9118C317.46 33.8687 316.198 33.8471 314.282 33.8471C312.279 33.8471 311.025 33.8687 310.521 33.9118C309.772 32.644 308.248 30.7022 305.949 28.0867C303.651 25.4711 302.351 24.0481 302.048 23.8177C301.947 23.731 301.789 23.6807 301.572 23.6663V25.7845C301.572 26.8366 301.616 28.2562 301.702 30.0429C301.745 30.8498 301.803 31.3394 301.875 31.5124C301.918 31.6279 301.997 31.7217 302.113 31.7936C302.271 31.9091 302.545 31.9953 302.934 32.0528C303.107 32.082 303.784 32.1252 304.966 32.1827V33.9118C303.208 33.8112 301.284 33.7604 299.195 33.7604C296.961 33.7604 294.886 33.8112 292.969 33.9118V32.1827C294.237 32.1252 294.983 32.071 295.207 32.0203C295.43 31.97 295.599 31.8909 295.714 31.7826C295.83 31.6748 295.909 31.534 295.952 31.3614C296.068 30.9288 296.139 29.7545 296.169 27.838C296.226 25.2301 296.255 22.982 296.255 21.0939V14.0906C296.255 11.7706 296.197 9.66681 296.082 7.77886C296.039 6.81364 295.974 6.24423 295.887 6.07127C295.83 5.97063 295.75 5.89133 295.65 5.83361C295.477 5.73297 295.21 5.65346 294.85 5.59574C294.605 5.5526 293.978 5.50926 292.969 5.46612V3.86658C295.001 3.62173 296.474 3.39845 297.39 3.19652C298.305 2.99481 299.62 2.62035 301.334 2.07251L301.81 2.33195L301.659 7.02233C301.601 9.61627 301.572 12.2246 301.572 14.8471V22.7152C302.034 22.3693 302.567 21.9227 303.172 21.3751C304.44 20.2223 305.492 19.2425 306.328 18.4352C306.63 18.1185 307.163 17.5852 307.927 16.8357C308.691 16.0866 309.332 15.4091 309.851 14.804V13.5935C311.148 13.6224 312.459 13.6296 313.785 13.615C314.361 13.615 315.327 13.6081 316.681 13.5935V15.2795L314.412 15.4307C314.167 15.4598 313.929 15.5317 313.699 15.647C313.266 15.8631 312.596 16.3314 311.688 17.052C310.42 18.0608 309.656 18.6875 309.397 18.9323C309.137 19.1776 308.936 19.3647 308.792 19.4941L306.955 21.0939C308.222 22.593 310.37 25.0571 313.396 28.4863C315.096 30.4319 316.213 31.556 316.746 31.8583C317.049 32.0313 317.488 32.1395 318.065 32.1827Z" fill="#231815"/>
<path d="M338.578 30.5829L337.627 32.7015C336.445 33.4221 335.227 33.9549 333.974 34.3008C333.037 34.5457 331.971 34.6683 330.775 34.6683C329.348 34.6683 328.091 34.5025 327.003 34.171C325.914 33.8399 324.985 33.3857 324.214 32.8093C323.443 32.2334 322.766 31.5271 322.183 30.6911C321.599 29.8555 321.177 28.8901 320.918 27.7948C320.658 26.6995 320.529 25.5036 320.529 24.2067C320.529 22.3189 320.781 20.6329 321.286 19.1486C321.631 18.1111 322.035 17.3619 322.496 16.9006C322.784 16.6124 323.534 16.0721 324.744 15.2794C325.954 14.487 326.833 13.9683 327.381 13.723C328.39 13.2767 329.578 13.053 330.948 13.053C332.878 13.053 334.463 13.4566 335.703 14.2635C336.942 15.0708 337.817 16.1007 338.329 17.3545C338.841 18.6081 339.096 20.1288 339.096 21.9155C339.096 22.3189 339.082 22.708 339.053 23.0826C338.693 23.1981 338.145 23.3279 337.41 23.4717C336.43 23.659 335.768 23.7601 335.422 23.7741C334.341 23.8607 332.914 23.9115 331.142 23.9254C329.369 23.9398 328.39 23.9546 328.202 23.9686C328.015 23.9834 327.806 23.9901 327.576 23.9901H326.149C326.264 26.2674 326.97 28.065 328.267 29.3836C329.564 30.7021 331.164 31.3614 333.066 31.3614C333.887 31.3614 334.644 31.2713 335.335 31.0912C336.027 30.911 336.935 30.5397 338.059 29.9777L338.578 30.5829ZM333.433 21.6343C333.491 19.3431 333.181 17.7364 332.504 16.8141C331.812 15.9062 330.918 15.4524 329.824 15.4524C328.7 15.4524 327.77 15.9279 327.035 16.879C326.286 17.8444 325.94 19.4298 325.998 21.6343C326.848 21.7641 328.267 21.8288 330.256 21.8288C331.524 21.8288 332.583 21.7641 333.433 21.6343Z" fill="#231815"/>
</g>
<defs>
<clipPath id="clip0_4395_21455">
<rect width="339.096" height="36" fill="white" transform="translate(0 -0.00146484)"/>
</clipPath>
</defs>
</svg>
