<?xml version="1.0" encoding="UTF-8"?><svg id="_レイヤー_1" xmlns="http://www.w3.org/2000/svg" viewBox="0 0 1920 984"><defs><style>.cls-1{fill:#cede00;}.cls-2{fill:#191414;}.cls-3{fill:#164d8d;}.cls-4{fill:#00b2b1;}.cls-5{fill:#fb471f;}.cls-6{fill:#e30082;}</style></defs><path class="cls-2" d="M255.775,923.856c-37.192,29.181-71.525,38.338-116.731,38.338C60.654,962.194,0,908.98,0,829.444c0-54.36,46.349-92.126,90.981-115.014-18.882-20.599-32.044-45.777-32.044-74.387,0-65.231,60.654-105.857,121.308-105.857,76.102,0,131.033,33.189,131.033,105.857,0,46.349-36.049,84.687-74.959,105.286l31.472,38.909c7.437-9.725,13.159-20.599,14.876-30.898h94.412c-5.72,34.904-21.742,71.525-48.063,98.992l83.541,100.135h-133.895l-22.887-28.61ZM148.2,789.389c-16.593,8.582-39.481,23.459-39.481,44.06,0,22.313,19.453,38.335,38.909,38.335,18.31,0,34.332-12.016,48.063-24.604l-47.492-57.791ZM181.387,680.098c16.022-7.439,32.615-23.459,32.615-42.343,0-14.876-11.442-27.464-27.464-27.464-14.305,0-30.327,10.299-30.327,28.038,0,14.305,14.876,29.753,25.176,41.769Z"/><path class="cls-2" d="M226.2,39.34h-60.002L15.629,185.537v262.354h125.885v-123.596h74.385c93.843,0,160.217-46.349,160.217-145.338,0-58.365-38.909-139.618-149.915-139.618ZM190.15,227.021h-48.637v-82.967h56.074c30.901,0,59.511,2.288,59.511,39.481,0,41.198-34.332,43.486-66.948,43.486Z"/><path class="cls-2" d="M641.974,404.897l102.765-67.789h0s-108.431-297.769-108.431-297.769h-123.022l-150.489,408.552h126.456l18.31-58.365h129.89l4.521,15.371ZM535.027,301.98l39.483-125.885h1.143l36.621,125.885h-77.247Z"/><polygon class="cls-2" points="753.644 39.34 753.644 144.054 868.083 144.054 868.083 447.892 993.97 447.892 993.97 144.054 1009.531 144.054 1053.333 39.34 753.644 39.34"/><path class="cls-2" d="M1331.998,287.675c-7.437,38.338-24.028,68.093-66.374,68.093-58.937,0-77.819-57.22-77.819-112.151s18.882-112.154,77.819-112.154c52.069,0,63.514,45.206,65.805,60.082h122.451c-10.619-100.051-69.862-158.574-177.139-161.768l-210.993,259.574c16.759,97.754,88.394,168.268,203.311,168.268,119.591,0,186.538-87.547,186.538-169.945h-123.599Z"/><polygon class="cls-2" points="1763.778 346.343 1889.662 320.664 1889.662 39.34 1763.778 39.34 1763.778 181.246 1645.904 181.246 1645.904 39.34 1520.025 39.34 1520.025 447.892 1645.904 447.892 1645.904 285.958 1763.778 285.958 1763.778 346.343"/><path class="cls-2" d="M663.927,543.914h-183.677v408.552h125.885v-123.596h74.385c77.061,0,135.563-31.284,154.036-97.275l-170.628-187.681ZM654.772,731.595h-48.637v-82.967h56.074c30.901,0,59.511,2.288,59.511,39.481,0,41.198-34.332,43.486-66.948,43.486Z"/><polygon class="cls-2" points="1008.959 847.754 1008.959 543.914 883.074 543.914 883.074 952.466 1111.308 952.466 1091.449 847.754 1008.959 847.754"/><path class="cls-2" d="M1484.879,704.576h0l-201.73-105.823-130.286,353.714h126.453l18.313-58.365h129.887l17.17,58.365h130.461l-90.269-247.89ZM1325.096,806.554l39.481-125.885h1.143l36.621,125.885h-77.245Z"/><polygon class="cls-2" points="1755.462 624.577 1722.541 694.403 1654.445 543.914 1515.404 543.914 1659.027 801.977 1659.027 952.466 1784.912 952.466 1784.912 801.977 1880.989 632.717 1755.462 624.577"/><polygon class="cls-6" points="161.763 189.843 15.629 185.537 166.197 39.34 161.763 189.843"/><polygon class="cls-3" points="641.974 404.897 607.411 376.348 658.769 256.421 744.738 337.108 641.974 404.897"/><polygon class="cls-5" points="1053.333 39.34 1014.66 .124 940.102 73.651 1009.532 144.054 1053.333 39.34"/><path class="cls-1" d="M1065.754,289.344L1276.755,29.778c.594,2.475,1.189,4.946,1.732,7.486,25.715,123.23-41.148,220.185-167.18,246.485-15.435,3.221-30.663,5.061-45.552,5.595Z"/><path class="cls-4" d="M786.122,733.184c-58.101-5.543-135.292-51.993-124.749-162.497l2.554-26.773,170.628,187.681c-14.689,2.64-30.81,3.27-48.433,1.588Z"/><polygon class="cls-1" points="1111.308 952.466 1031.478 983.876 993.139 886.435 1091.45 847.754 1111.308 952.466"/><polygon class="cls-5" points="1319.586 747.777 1249.704 646.527 1283.362 598.753 1485.044 704.665 1319.586 747.777"/><polygon class="cls-3" points="1783.247 709.499 1755.931 624.607 1755.931 624.607 1881.461 632.716 1881.46 632.716 1920 727.275 1783.247 709.499"/><polygon class="cls-4" points="1763.778 346.343 1724.004 252.909 1839.83 203.602 1889.663 320.664 1763.778 346.343"/></svg>